{
  "accessors": [
    {
      "bufferView": 2,
      "componentType": 5126,
      "count": 65532,
      "max": [
        5.91526985168457,
        1.3440029621124268,
        11.537837982177734
      ],
      "min": [
        -13.562117576599121,
        -36.014686584472656,
        -8.464621543884277
      ],
      "type": "VEC3"
    },
    {
      "bufferView": 2,
      "byteOffset": 786384,
      "componentType": 5126,
      "count": 65532,
      "max": [
        0.9999915957450867,
        0.9999958872795105,
        0.9999707341194153
      ],
      "min": [
        -0.9999880790710449,
        -0.9814758896827698,
        -0.9999839067459106
      ],
      "type": "VEC3"
    },
    {
      "bufferView": 1,
      "componentType": 5126,
      "count": 65532,
      "max": [
        0.9990115761756897,
        0.9990205764770508
      ],
      "min": [
        0.0009875744581222534,
        0.18614578247070313
      ],
      "type": "VEC2"
    },
    {
      "bufferView": 0,
      "componentType": 5125,
      "count": 288483,
      "type": "SCALAR"
    },
    {
      "bufferView": 2,
      "byteOffset": 1572768,
      "componentType": 5126,
      "count": 65532,
      "max": [
        14.686624526977539,
        4.7713212966918945,
        18.015029907226563
      ],
      "min": [
        -13.561454772949219,
        -13.799383163452148,
        -15.994691848754883
      ],
      "type": "VEC3"
    },
    {
      "bufferView": 2,
      "byteOffset": 2359152,
      "componentType": 5126,
      "count": 65532,
      "max": [
        0.9999915957450867,
        0.999997079372406,
        0.9999881386756897
      ],
      "min": [
        -0.9999869465827942,
        -0.9999999403953552,
        -0.9999836683273315
      ],
      "type": "VEC3"
    },
    {
      "bufferView": 1,
      "byteOffset": 524256,
      "componentType": 5126,
      "count": 65532,
      "max": [
        0.9990089535713196,
        0.999020516872406
      ],
      "min": [
        0.0009893327951431274,
        0.18632060289382935
      ],
      "type": "VEC2"
    },
    {
      "bufferView": 0,
      "byteOffset": 1153932,
      "componentType": 5125,
      "count": 279102,
      "type": "SCALAR"
    },
    {
      "bufferView": 2,
      "byteOffset": 3145536,
      "componentType": 5126,
      "count": 65532,
      "max": [
        14.072563171386719,
        4.7713212966918945,
        18.501480102539063
      ],
      "min": [
        -20.965768814086914,
        -8.818865776062012,
        -16.413915634155273
      ],
      "type": "VEC3"
    },
    {
      "bufferView": 2,
      "byteOffset": 3931920,
      "componentType": 5126,
      "count": 65532,
      "max": [
        0.9999586343765259,
        0.9999958872795105,
        0.9999907612800598
      ],
      "min": [
        -0.9999970197677612,
        -0.9999999403953552,
        -0.9999721050262451
      ],
      "type": "VEC3"
    },
    {
      "bufferView": 1,
      "byteOffset": 1048512,
      "componentType": 5126,
      "count": 65532,
      "max": [
        0.9989170432090759,
        0.9990154504776001
      ],
      "min": [
        0.00012344788410700858,
        0.185918927192688
      ],
      "type": "VEC2"
    },
    {
      "bufferView": 0,
      "byteOffset": 2270340,
      "componentType": 5125,
      "count": 262956,
      "type": "SCALAR"
    },
    {
      "bufferView": 2,
      "byteOffset": 4718304,
      "componentType": 5126,
      "count": 65532,
      "max": [
        13.794374465942383,
        4.214869022369385,
        18.207294464111328
      ],
      "min": [
        -21.015342712402344,
        -36.014686584472656,
        -16.428203582763672
      ],
      "type": "VEC3"
    },
    {
      "bufferView": 2,
      "byteOffset": 5504688,
      "componentType": 5126,
      "count": 65532,
      "max": [
        0.9999030232429504,
        0.9999822974205017,
        0.9999976754188538
      ],
      "min": [
        -0.9999815821647644,
        -1.0,
        -0.9999707937240601
      ],
      "type": "VEC3"
    },
    {
      "bufferView": 1,
      "byteOffset": 1572768,
      "componentType": 5126,
      "count": 65532,
      "max": [
        0.9989761710166931,
        0.9991694688796997
      ],
      "min": [
        0.000939435325562954,
        0.18429780006408691
      ],
      "type": "VEC2"
    },
    {
      "bufferView": 0,
      "byteOffset": 3322164,
      "componentType": 5125,
      "count": 228180,
      "type": "SCALAR"
    },
    {
      "bufferView": 2,
      "byteOffset": 6291072,
      "componentType": 5126,
      "count": 39999,
      "max": [
        13.341513633728027,
        3.2960593700408936,
        17.261465072631836
      ],
      "min": [
        -19.928180694580078,
        -34.58140182495117,
        -16.428203582763672
      ],
      "type": "VEC3"
    },
    {
      "bufferView": 2,
      "byteOffset": 6771060,
      "componentType": 5126,
      "count": 39999,
      "max": [
        0.9999643564224243,
        0.9999784827232361,
        0.9999684691429138
      ],
      "min": [
        -0.9999815821647644,
        -0.9999974966049194,
        -0.9999707937240601
      ],
      "type": "VEC3"
    },
    {
      "bufferView": 1,
      "byteOffset": 2097024,
      "componentType": 5126,
      "count": 39999,
      "max": [
        0.9989714026451111,
        0.9990200996398926
      ],
      "min": [
        0.000978901982307434,
        0.18584692478179932
      ],
      "type": "VEC2"
    },
    {
      "bufferView": 0,
      "byteOffset": 4234884,
      "componentType": 5125,
      "count": 82353,
      "type": "SCALAR"
    },
    {
      "bufferView": 2,
      "byteOffset": 7251048,
      "componentType": 5126,
      "count": 4927,
      "max": [
        14.841019630432129,
        3.920959711074829,
        17.11676025390625
      ],
      "min": [
        -21.015342712402344,
        -33.211055755615234,
        -15.652582168579102
      ],
      "type": "VEC3"
    },
    {
      "bufferView": 2,
      "byteOffset": 7310172,
      "componentType": 5126,
      "count": 4927,
      "max": [
        0.9987910985946655,
        0.9978501796722412,
        0.9987367987632751
      ],
      "min": [
        -0.9948284029960632,
        -0.9999986886978149,
        -0.9988611936569214
      ],
      "type": "VEC3"
    },
    {
      "bufferView": 1,
      "byteOffset": 2417016,
      "componentType": 5126,
      "count": 4927,
      "max": [
        0.8451826572418213,
        0.6618022918701172
      ],
      "min": [
        0.8451826572418213,
        0.6618022918701172
      ],
      "type": "VEC2"
    },
    {
      "bufferView": 0,
      "byteOffset": 4564296,
      "componentType": 5125,
      "count": 10629,
      "type": "SCALAR"
    }
  ],
  "asset": {
    "extras": {
      "author": "HoangHiepVu (https://sketchfab.com/HoangHiepVu)",
      "license": "CC-BY-4.0 (http://creativecommons.org/licenses/by/4.0/)",
      "source": "https://sketchfab.com/3d-models/monument-a-la-republique-aft-je-suis-charlie-93410869fec740dfa0261dd0de6af784",
      "title": "Monument à la République aft  \"Je suis Charlie\""
    },
    "generator": "Sketchfab-12.66.0",
    "version": "2.0"
  },
  "bufferViews": [
    {
      "buffer": 0,
      "byteLength": 4606812,
      "name": "floatBufferViews",
      "target": 34963
    },
    {
      "buffer": 0,
      "byteLength": 2456432,
      "byteOffset": 4606812,
      "byteStride": 8,
      "name": "floatBufferViews",
      "target": 34962
    },
    {
      "buffer": 0,
      "byteLength": 7369296,
      "byteOffset": 7063244,
      "byteStride": 12,
      "name": "floatBufferViews",
      "target": 34962
    }
  ],
  "buffers": [
    {
      "byteLength": 14432540,
      "uri": "scene.bin"
    }
  ],
  "extensionsUsed": [
    "KHR_materials_unlit"
  ],
  "images": [
    {
      "uri": "textures/Model_0_baseColor.jpeg"
    }
  ],
  "materials": [
    {
      "doubleSided": true,
      "extensions": {
        "KHR_materials_unlit": {}
      },
      "name": "Model_0",
      "pbrMetallicRoughness": {
        "baseColorTexture": {
          "index": 0
        },
        "metallicFactor": 0.0
      }
    },
    {
      "doubleSided": true,
      "extensions": {
        "KHR_materials_unlit": {}
      },
      "name": "Model_untextured",
      "pbrMetallicRoughness": {
        "baseColorFactor": [
          0.501961,
          0.501961,
          0.501961,
          1.0
        ],
        "metallicFactor": 0.0
      }
    }
  ],
  "meshes": [
    {
      "name": "Object_0",
      "primitives": [
        {
          "attributes": {
            "NORMAL": 1,
            "POSITION": 0,
            "TEXCOORD_0": 2
          },
          "indices": 3,
          "material": 0,
          "mode": 4
        }
      ]
    },
    {
      "name": "Object_1",
      "primitives": [
        {
          "attributes": {
            "NORMAL": 5,
            "POSITION": 4,
            "TEXCOORD_0": 6
          },
          "indices": 7,
          "material": 0,
          "mode": 4
        }
      ]
    },
    {
      "name": "Object_2",
      "primitives": [
        {
          "attributes": {
            "NORMAL": 9,
            "POSITION": 8,
            "TEXCOORD_0": 10
          },
          "indices": 11,
          "material": 0,
          "mode": 4
        }
      ]
    },
    {
      "name": "Object_3",
      "primitives": [
        {
          "attributes": {
            "NORMAL": 13,
            "POSITION": 12,
            "TEXCOORD_0": 14
          },
          "indices": 15,
          "material": 0,
          "mode": 4
        }
      ]
    },
    {
      "name": "Object_4",
      "primitives": [
        {
          "attributes": {
            "NORMAL": 17,
            "POSITION": 16,
            "TEXCOORD_0": 18
          },
          "indices": 19,
          "material": 0,
          "mode": 4
        }
      ]
    },
    {
      "name": "Object_5",
      "primitives": [
        {
          "attributes": {
            "NORMAL": 21,
            "POSITION": 20,
            "TEXCOORD_0": 22
          },
          "indices": 23,
          "material": 1,
          "mode": 4
        }
      ]
    }
  ],
  "nodes": [
    {
      "children": [
        1
      ],
      "matrix": [
        1.0,
        0.0,
        0.0,
        0.0,
        0.0,
        -1.0,
        -3.834759027214593e-17,
        0.0,
        0.0,
        3.834759027214593e-17,
        -1.0,
        0.0,
        0.0,
        0.0,
        0.0,
        1.0
      ],
      "name": "Sketchfab_model"
    },
    {
      "children": [
        2,
        3,
        4,
        5,
        6,
        7
      ],
      "name": "Model.obj.cleaner"
    },
    {
      "mesh": 0,
      "name": "Object_2"
    },
    {
      "mesh": 1,
      "name": "Object_3"
    },
    {
      "mesh": 2,
      "name": "Object_4"
    },
    {
      "mesh": 3,
      "name": "Object_5"
    },
    {
      "mesh": 4,
      "name": "Object_6"
    },
    {
      "mesh": 5,
      "name": "Object_7"
    }
  ],
  "samplers": [
    {
      "magFilter": 9729,
      "minFilter": 9987,
      "wrapS": 10497,
      "wrapT": 10497
    }
  ],
  "scene": 0,
  "scenes": [
    {
      "name": "Sketchfab_Scene",
      "nodes": [
        0
      ]
    }
  ],
  "textures": [
    {
      "sampler": 0,
      "source": 0
    }
  ]
}
